<svg width="876" height="942" viewBox="0 0 876 942" fill="none" xmlns="http://www.w3.org/2000/svg">
<g clip-path="url(#clip0_331_11)">
<mask id="mask0_331_11" style="mask-type:luminance" maskUnits="userSpaceOnUse" x="0" y="0" width="876" height="1060">
<path d="M876 0H0V1060H876V0Z" fill="white"/>
</mask>
<g mask="url(#mask0_331_11)">
<path fill-rule="evenodd" clip-rule="evenodd" d="M359.744 0.0190288C359.245 -0.479771 344.085 8.88956 326.059 20.8385L293.284 42.5645L287.162 56.1529C283.795 63.6265 269.702 96.0819 255.846 128.276C241.99 160.47 223.244 203.531 214.189 223.967C205.133 244.402 197.726 261.987 197.726 263.041C197.726 268.054 192.002 266.96 176.783 259.044L160.218 250.429L153.88 262.984C150.393 269.89 147.541 276.487 147.541 277.647C147.541 278.806 151.54 281.786 156.428 284.269C161.316 286.752 170.285 291.951 176.358 295.824C186.088 302.029 187.136 303.362 185.172 307.032C183.589 309.989 180.79 311.197 175.533 311.197C165.189 311.197 157.698 319.372 151.797 337.1C147.246 350.772 147.184 351.795 150.461 358.667C153.88 365.833 153.862 365.917 147.705 371.667C139.381 379.44 137.586 387.361 142.203 395.933C152.457 414.968 180.998 409.693 180.998 388.763C180.998 384.179 181.807 379.928 182.799 379.315C183.791 378.702 196.729 382.975 211.55 388.808C259.895 407.835 291.848 417.59 306.32 417.74C317.32 417.854 330.944 410.083 346.254 394.961C366.244 375.217 367.636 372.656 363.975 362.378C359.307 349.273 360.099 340.337 366.879 329.648C372.35 321.023 381.47 312.323 383.215 314.067C383.592 314.445 382.022 318.895 379.727 323.952C377.249 329.412 375.535 337.711 375.508 344.38C375.467 354.4 376.49 357.053 384.983 368.952C396.387 384.929 398.957 396.73 396.267 420.713C393.71 443.513 391.109 447.669 345.082 502.48C302.154 553.601 278.609 599.833 270.855 648.221C267.157 671.294 269.245 715.474 274.984 735.574C280.982 756.582 297.576 789.893 310.556 806.974C337.204 842.043 385.203 872.689 424.643 879.82C440.004 882.597 481.161 880.696 494.635 876.586C536.328 863.87 569.039 834.935 584.231 797.334C587.005 790.467 591.369 773.502 593.93 759.631C596.491 745.76 599.896 732.314 601.494 729.755C603.092 727.197 610.993 721.653 619.051 717.437C658.961 696.554 679.775 670.461 688.104 630.876C690.994 617.142 692.503 578.784 690.154 578.784C689.576 578.784 685.662 582.593 681.455 587.248C673.387 596.176 647.62 609.923 630.601 614.38C608.919 620.059 588.88 634.432 578.893 651.471L573.457 660.747L569.704 650.862C561.717 629.827 550.792 619.314 522.366 605.304C508.694 598.565 507.028 598.181 505.306 601.376C504.257 603.323 495.69 610.56 486.266 617.459L469.134 630.002L470.31 640.091C472.887 662.161 487.671 683.616 515.725 706.004C524.403 712.93 532.618 721.049 533.985 724.047C539.524 736.202 535.419 748.774 521.549 762.126C487.277 795.118 432.83 781.405 410.439 734.141C404.389 721.37 403.692 717.944 403.692 701.08C403.692 684.361 404.414 680.752 410.169 668.677C419.909 648.245 433.484 633.266 463.09 610.293C493.76 586.494 504.003 575.698 513.748 556.907L520.667 543.564L512.053 533.352C497.981 516.667 487.085 498.32 479.732 478.921C473.037 461.257 472.815 459.661 472.756 429.312C472.7 400.429 473.151 396.625 478.474 381.136C490.961 344.796 513.548 315.705 545.436 294.893L561.548 284.38L555.001 278.871C546.543 271.756 536.731 266.897 519.151 261.118C495.314 253.282 486.287 242.314 486.287 221.186V210.48L500.263 223.285C516.89 238.517 537.883 249.385 559.473 253.936C585.344 259.39 598.38 257.232 648.342 239.229C675.833 229.323 697.745 233.131 712.51 250.376C721.389 260.746 725.366 273.388 724.354 288.001C723.885 294.771 724.453 298.655 725.906 298.654C730.753 298.652 749.241 278.174 754.976 266.455C762.735 250.6 764.655 225.281 759.317 209.214C751.786 186.546 734.208 168.385 710.027 158.291C699.425 153.865 695.421 153.487 658.797 153.428L619.067 153.362L605.476 146.095C595.957 141.005 584.991 131.885 568.883 115.668C535.498 82.057 524.834 74.9267 497.285 67.7897C464.359 59.2596 422.376 69.3521 403.01 90.4507C389.356 105.327 387.702 110.961 388.324 140.493C388.832 164.609 388.566 166.468 383.153 176.914L377.448 187.921L382.292 189.759C388.777 192.224 391.423 195.83 393.167 204.58C395.839 217.983 399.256 225.455 403.304 226.739C405.508 227.438 413.319 227.366 420.661 226.58L434.012 225.151V235.305C434.012 252.04 429.46 255.816 401.76 262.053C376.882 267.656 373.602 270.747 335.072 324.896C322.757 342.203 310.102 359.293 306.953 362.872L301.232 369.377L275.094 365.322C243.926 360.483 224.815 355.876 221.274 352.35C219.851 350.933 217.802 345.562 216.725 340.415C215.648 335.269 214.216 329.176 213.539 326.876C212.863 324.576 213.107 321.475 214.087 319.984C215.46 317.891 220.171 319.443 234.719 326.778C245.089 332.006 254.07 336.283 254.678 336.283C256.508 336.283 271.008 310.957 270.058 309.421C269.574 308.638 262.513 304.772 254.364 300.83C246.214 296.889 239.546 292.923 239.546 292.015C239.546 290.666 290.18 206.728 307.423 179.494C318.032 162.738 330.005 143.279 347.292 114.688L365.617 84.3751L365.265 69.7414C364.802 50.4605 360.899 1.17421 359.744 0.0190288ZM529.247 634.612C522.496 627.863 518.421 624.668 517.003 624.674C514.792 624.685 519.051 632.487 529.729 646.726C539.029 659.127 555.022 689.46 555.573 695.743C555.73 697.529 556.298 696.638 556.835 693.763C557.371 690.889 556.693 683.363 555.328 677.039C552.435 663.638 543.112 648.473 529.247 634.612ZM647.296 628.704C647.296 628.525 647.151 628.442 646.884 628.446C643.728 628.489 623.171 640.524 613.84 648.021C603.526 656.308 592.667 672.398 588.012 686.295C582.772 701.943 583.666 701.726 595.139 684.576C601.429 675.175 614.138 660.98 626.504 649.544C637.939 638.969 647.296 629.591 647.296 628.704ZM664.568 645.097C669.111 635.82 670.844 630.609 669.799 630.631C669.129 630.645 667.318 632.812 664.372 637.433C658.537 646.585 639.439 665.563 622.151 679.391C614.185 685.763 597.112 707.896 597.112 711.851C597.112 712.728 601.111 709.635 605.999 704.975C610.886 700.315 620.642 692.163 627.681 686.859C644.587 674.117 657.535 659.457 664.568 645.097ZM500.475 643.95C495.448 636.53 493.036 633.452 491.837 633.448C491.292 633.446 491 634.076 490.824 635.224C489.545 643.583 500.679 661.385 520.72 683.021C531.682 694.855 540.727 705.639 540.817 706.988C540.934 708.727 541.286 708.691 542.026 706.862C542.6 705.443 540.879 699.899 538.203 694.543C535.528 689.187 527.963 678.59 521.39 670.992C514.816 663.394 505.404 651.225 500.475 643.95Z" fill="#DA291C"/>
<path fill-rule="evenodd" clip-rule="evenodd" d="M624.311 291.227C590.954 292.725 558.197 306.456 533.315 331.012C516.112 347.99 509.521 358.376 500.789 382.295C488.503 415.953 490.65 455.541 506.564 488.773C512.398 500.957 518.158 508.473 533.086 523.385C553.486 543.763 571.662 554.762 595.021 560.868C608.956 564.511 645.086 565.027 660.141 561.799C732.533 546.277 780.352 469.791 763.23 396.909C759.066 379.185 745.852 352.378 735.291 340.223C723.861 327.069 699.176 308.895 683.428 302.043C664.555 293.831 644.326 290.328 624.311 291.227ZM703.464 345.691C682.98 327.038 656.87 317.412 630.482 317.273C609.959 317.164 589.268 322.794 570.925 334.377C509.658 373.061 500.031 455.495 550.925 505.616C580.212 534.457 618.732 545.463 656.404 535.753C675.644 530.793 692.771 520.777 707.936 505.616C753.206 460.357 751.214 389.172 703.464 345.691Z" fill="#FFCD1C"/>
<path d="M744 428C744 490.96 692.96 542 630 542C567.04 542 516 490.96 516 428C516 365.04 567.04 314 630 314C692.96 314 744 365.04 744 428Z" fill="#DA291C"/>
<path d="M711.223 622.15C712.945 604.342 713.339 600.275 718.579 600.008C720.14 599.928 722.131 600.184 724.715 600.515C725.186 600.575 725.676 600.638 726.188 600.702C744.331 602.968 759.499 607.517 778.296 616.324C849.734 649.793 888.457 728.754 872.147 807.697C868.096 827.302 854.52 856.667 841.043 874.969C820.163 903.326 780.207 929.565 744.529 938.351C728.722 942.243 693.981 943.683 678.662 941.078C664.613 938.69 640.645 930.874 628.236 924.636C606.381 913.649 575.979 887.922 564.93 871.062C561.802 866.289 562.139 865.678 575.977 851.083L590.25 836.025L601.522 851.108C626.576 884.637 671.621 905.361 711.828 901.852C794.078 894.674 848.758 819.775 830.874 738.783C822.994 703.097 795.183 668.714 761.257 652.716C745.463 645.268 725.367 639.409 715.614 639.409H709.537L710.917 625.298C711.024 624.204 711.126 623.155 711.223 622.15Z" fill="#DA291C"/>
<path d="M685.617 692.893C683.077 692.978 680.346 695.983 675.912 700.863C674.556 702.356 673.038 704.027 671.319 705.841L656.02 721.985L663.159 735.504C667.084 742.94 670.298 749.826 670.298 750.808C670.298 751.789 658.809 752.354 644.768 752.061L619.239 751.526L615.686 769.569C613.732 779.492 611.522 788.601 610.773 789.813C609.833 791.334 624.42 792.018 657.833 792.018C710.599 792.018 717.525 790.76 722.283 780.32C726.601 770.846 724.827 764.531 708.602 731.593C706.367 727.056 704.384 722.977 702.608 719.326L702.596 719.301C693.271 700.125 689.689 692.757 685.617 692.893Z" fill="#DA291C"/>
<path d="M172.364 599.69C127.067 599.69 76.6108 621.192 47.7032 652.814C1.94832 702.865 -11.1622 773.091 13.6709 835.094C22.5349 857.225 35.3808 875.802 54.8339 894.621C77.6542 916.697 101.575 929.986 133.631 938.387C143.698 941.026 156.142 942.344 171.711 942.421C218.976 942.657 259.475 926.137 292.606 893.11C305.887 879.871 323.974 855.857 322.84 852.97C322.455 851.99 315.868 844.346 308.199 835.984L294.256 820.779L289.645 829.917C278.665 851.682 252.759 877.271 230.031 888.803C192.278 907.957 143.976 905.938 106.137 883.625C88.1209 873.001 68.1553 851.731 58.1869 832.542C47.088 811.178 42.9805 794.747 43.0188 771.856C43.0568 749.051 47.0297 731.536 56.3695 712.994C77.3365 671.369 115.868 644.956 162.983 639.908L177.383 638.364L185.245 620.203C189.57 610.214 192.578 601.513 191.931 600.865C191.283 600.218 182.478 599.69 172.364 599.69Z" fill="#DA291C"/>
<path d="M303.592 436.935C296.926 436.697 288.621 436.739 278.186 436.952C243.482 437.651 242.106 437.846 233.964 443.235C223.583 450.106 218.636 460.092 218.636 474.156C218.636 487.142 221.866 493.794 236.602 511.161L247.854 524.419L243.475 535.402C241.069 541.442 236.009 554.378 232.232 564.151C228.455 573.924 213.388 612.024 198.747 648.817L198.53 649.361C154.882 759.05 151.151 768.427 153.176 776.329C153.365 777.066 153.604 777.791 153.865 778.583L153.88 778.626C155.255 782.791 158.612 786.595 162.791 788.719C170.897 792.839 182.273 791.67 187.794 786.151C189.945 784 200.619 759.277 211.514 731.209C245.486 643.687 247.89 637.548 268.331 586.102C279.295 558.507 288.704 532.044 289.241 527.293C290.625 515.06 286.686 505.109 274.808 490.84L264.484 478.439H291.434C315.926 478.439 319.022 478.01 325.348 473.736C334.027 467.872 336.58 459.426 332.573 449.838C328.839 440.905 323.592 437.649 303.592 436.935Z" fill="#DA291C"/>
</g>
</g>
<defs>
<clipPath id="clip0_331_11">
<rect width="876" height="942" fill="white"/>
</clipPath>
</defs>
</svg>
