<svg width="876" height="1060" viewBox="0 0 876 1060" fill="none" xmlns="http://www.w3.org/2000/svg">
<g clip-path="url(#clip0_309_65)">
<mask id="mask0_309_65" style="mask-type:luminance" maskUnits="userSpaceOnUse" x="0" y="0" width="876" height="1060">
<path d="M876 0H0V1060H876V0Z" fill="white"/>
</mask>
<g mask="url(#mask0_309_65)">
<path fill-rule="evenodd" clip-rule="evenodd" d="M359.744 0.0190288C359.245 -0.479771 344.085 8.88956 326.059 20.8385L293.284 42.5645L287.162 56.1529C283.795 63.6265 269.702 96.0819 255.846 128.276C241.99 160.47 223.244 203.531 214.189 223.967C205.133 244.402 197.726 261.987 197.726 263.041C197.726 268.054 192.002 266.96 176.783 259.044L160.218 250.429L153.88 262.984C150.393 269.89 147.541 276.487 147.541 277.647C147.541 278.806 151.54 281.786 156.428 284.269C161.316 286.752 170.285 291.951 176.358 295.824C186.088 302.029 187.136 303.362 185.172 307.032C183.589 309.989 180.79 311.197 175.533 311.197C165.189 311.197 157.698 319.372 151.797 337.1C147.246 350.772 147.184 351.795 150.461 358.667C153.88 365.833 153.862 365.917 147.705 371.667C139.381 379.44 137.586 387.361 142.203 395.933C152.457 414.968 180.998 409.693 180.998 388.763C180.998 384.179 181.807 379.928 182.799 379.315C183.791 378.702 196.729 382.975 211.55 388.808C259.895 407.835 291.848 417.59 306.32 417.74C317.32 417.854 330.944 410.083 346.254 394.961C366.244 375.217 367.636 372.656 363.975 362.378C359.307 349.273 360.099 340.337 366.879 329.648C372.35 321.023 381.47 312.323 383.215 314.067C383.592 314.445 382.022 318.895 379.727 323.952C377.249 329.412 375.535 337.711 375.508 344.38C375.467 354.4 376.49 357.053 384.983 368.952C396.387 384.929 398.957 396.73 396.267 420.713C393.71 443.513 391.109 447.669 345.082 502.48C302.154 553.601 278.609 599.833 270.855 648.221C267.157 671.294 269.245 715.474 274.984 735.574C280.982 756.582 297.576 789.893 310.556 806.974C337.204 842.043 385.203 872.689 424.643 879.82C440.004 882.597 481.161 880.696 494.635 876.586C536.328 863.87 569.039 834.935 584.231 797.334C587.005 790.467 591.369 773.502 593.93 759.631C596.491 745.76 599.896 732.314 601.494 729.755C603.092 727.197 610.993 721.653 619.051 717.437C658.961 696.554 679.775 670.461 688.104 630.876C690.994 617.142 692.503 578.784 690.154 578.784C689.576 578.784 685.662 582.593 681.455 587.248C673.387 596.176 647.62 609.923 630.601 614.38C608.919 620.059 588.88 634.432 578.893 651.471L573.457 660.747L569.704 650.862C561.717 629.827 550.792 619.314 522.366 605.304C508.694 598.565 507.028 598.181 505.306 601.376C504.257 603.323 495.69 610.56 486.266 617.459L469.134 630.002L470.31 640.091C472.887 662.161 487.671 683.616 515.725 706.004C524.403 712.93 532.618 721.049 533.985 724.047C539.524 736.202 535.419 748.774 521.549 762.126C487.277 795.118 432.83 781.405 410.439 734.141C404.389 721.37 403.692 717.944 403.692 701.08C403.692 684.361 404.414 680.752 410.169 668.677C419.909 648.245 433.484 633.266 463.09 610.293C493.76 586.494 504.003 575.698 513.748 556.907L520.667 543.564L512.053 533.352C497.981 516.667 487.085 498.32 479.732 478.921C473.037 461.257 472.815 459.661 472.756 429.312C472.7 400.429 473.151 396.625 478.474 381.136C490.961 344.796 513.548 315.705 545.436 294.893L561.548 284.38L555.001 278.871C546.543 271.756 536.731 266.897 519.151 261.118C495.314 253.282 486.287 242.314 486.287 221.186V210.48L500.263 223.285C516.89 238.517 537.883 249.385 559.473 253.936C585.344 259.39 598.38 257.232 648.342 239.229C675.833 229.323 697.745 233.131 712.51 250.376C721.389 260.746 725.366 273.388 724.354 288.001C723.885 294.771 724.453 298.655 725.906 298.654C730.753 298.652 749.241 278.174 754.976 266.455C762.735 250.6 764.655 225.281 759.317 209.214C751.786 186.546 734.208 168.385 710.027 158.291C699.425 153.865 695.421 153.487 658.797 153.428L619.067 153.362L605.476 146.095C595.957 141.005 584.991 131.885 568.883 115.668C535.498 82.057 524.834 74.9267 497.285 67.7897C464.359 59.2596 422.376 69.3521 403.01 90.4507C389.356 105.327 387.702 110.961 388.324 140.493C388.832 164.609 388.566 166.468 383.153 176.914L377.448 187.921L382.292 189.759C388.777 192.224 391.423 195.83 393.167 204.58C395.839 217.983 399.256 225.455 403.304 226.739C405.508 227.438 413.319 227.366 420.661 226.58L434.012 225.151V235.305C434.012 252.04 429.46 255.816 401.76 262.053C376.882 267.656 373.602 270.747 335.072 324.896C322.757 342.203 310.102 359.293 306.953 362.872L301.232 369.377L275.094 365.322C243.926 360.483 224.815 355.876 221.274 352.35C219.851 350.933 217.802 345.562 216.725 340.415C215.648 335.269 214.216 329.176 213.539 326.876C212.863 324.576 213.107 321.475 214.087 319.984C215.46 317.891 220.171 319.443 234.719 326.778C245.089 332.006 254.07 336.283 254.678 336.283C256.508 336.283 271.008 310.957 270.058 309.421C269.574 308.638 262.513 304.772 254.364 300.83C246.214 296.889 239.546 292.923 239.546 292.015C239.546 290.666 290.18 206.728 307.423 179.494C318.032 162.738 330.005 143.279 347.292 114.688L365.617 84.3751L365.265 69.7414C364.802 50.4605 360.899 1.17421 359.744 0.0190288ZM529.247 634.612C522.496 627.863 518.421 624.668 517.003 624.674C514.792 624.685 519.051 632.487 529.729 646.726C539.029 659.127 555.022 689.46 555.573 695.743C555.73 697.529 556.298 696.638 556.835 693.763C557.371 690.889 556.693 683.363 555.328 677.039C552.435 663.638 543.112 648.473 529.247 634.612ZM647.296 628.704C647.296 628.525 647.151 628.442 646.884 628.446C643.728 628.489 623.171 640.524 613.84 648.021C603.526 656.308 592.667 672.398 588.012 686.295C582.772 701.943 583.666 701.726 595.139 684.576C601.429 675.175 614.138 660.98 626.504 649.544C637.939 638.969 647.296 629.591 647.296 628.704ZM664.568 645.097C669.111 635.82 670.844 630.609 669.799 630.631C669.129 630.645 667.318 632.812 664.372 637.433C658.537 646.585 639.439 665.563 622.151 679.391C614.185 685.763 597.112 707.896 597.112 711.851C597.112 712.728 601.111 709.635 605.999 704.975C610.886 700.315 620.642 692.163 627.681 686.859C644.587 674.117 657.535 659.457 664.568 645.097ZM500.475 643.95C495.448 636.53 493.036 633.452 491.837 633.448C491.292 633.446 491 634.076 490.824 635.224C489.545 643.583 500.679 661.385 520.72 683.021C531.682 694.855 540.727 705.639 540.817 706.988C540.934 708.727 541.286 708.691 542.026 706.862C542.6 705.443 540.879 699.899 538.203 694.543C535.528 689.187 527.963 678.59 521.39 670.992C514.816 663.394 505.404 651.225 500.475 643.95Z" fill="#FFCD1C"/>
<path fill-rule="evenodd" clip-rule="evenodd" d="M624.311 291.227C590.954 292.725 558.197 306.456 533.315 331.012C516.112 347.99 509.521 358.376 500.789 382.295C488.503 415.953 490.65 455.541 506.564 488.773C512.398 500.957 518.158 508.473 533.086 523.385C553.486 543.763 571.662 554.762 595.021 560.868C608.956 564.511 645.086 565.027 660.141 561.799C732.533 546.277 780.352 469.791 763.23 396.909C759.066 379.185 745.852 352.378 735.291 340.223C723.861 327.069 699.176 308.895 683.428 302.043C664.555 293.831 644.326 290.328 624.311 291.227ZM703.464 345.691C682.98 327.038 656.87 317.412 630.482 317.273C609.959 317.164 589.268 322.794 570.925 334.377C509.658 373.061 500.031 455.495 550.925 505.616C580.212 534.457 618.732 545.463 656.404 535.753C675.644 530.793 692.771 520.777 707.936 505.616C753.206 460.357 751.214 389.172 703.464 345.691Z" fill="#FFCD00"/>
<path d="M744 428C744 490.96 692.96 542 630 542C567.04 542 516 490.96 516 428C516 365.04 567.04 314 630 314C692.96 314 744 365.04 744 428Z" fill="#DA291C"/>
<path d="M711.223 622.15C712.945 604.342 713.339 600.275 718.579 600.008C720.14 599.928 722.131 600.184 724.715 600.515C725.186 600.575 725.676 600.638 726.188 600.702C744.331 602.968 759.499 607.517 778.296 616.324C849.734 649.793 888.457 728.754 872.147 807.697C868.096 827.302 854.52 856.667 841.043 874.969C820.163 903.326 780.207 929.565 744.529 938.351C728.722 942.243 693.981 943.683 678.662 941.078C664.613 938.69 640.645 930.874 628.236 924.636C606.381 913.649 575.979 887.922 564.93 871.062C561.802 866.289 562.139 865.678 575.977 851.083L590.25 836.025L601.522 851.108C626.576 884.637 671.621 905.361 711.828 901.852C794.078 894.674 848.758 819.775 830.874 738.783C822.994 703.097 795.183 668.714 761.257 652.716C745.463 645.268 725.367 639.409 715.614 639.409H709.537L710.917 625.298C711.024 624.204 711.126 623.155 711.223 622.15Z" fill="#FFCD00"/>
<path d="M685.617 692.893C683.077 692.978 680.346 695.983 675.912 700.863C674.556 702.356 673.038 704.027 671.319 705.841L656.02 721.985L663.159 735.504C667.084 742.94 670.298 749.826 670.298 750.808C670.298 751.789 658.809 752.354 644.768 752.061L619.239 751.526L615.686 769.569C613.732 779.492 611.522 788.601 610.773 789.813C609.833 791.334 624.42 792.018 657.833 792.018C710.599 792.018 717.525 790.76 722.283 780.32C726.601 770.846 724.827 764.531 708.602 731.593C706.367 727.056 704.384 722.977 702.608 719.326L702.596 719.301C693.271 700.125 689.689 692.757 685.617 692.893Z" fill="#FFCD00"/>
<path d="M172.364 599.69C127.067 599.69 76.6108 621.192 47.7032 652.814C1.94832 702.865 -11.1622 773.091 13.6709 835.094C22.5349 857.225 35.3808 875.802 54.8339 894.621C77.6542 916.697 101.575 929.986 133.631 938.387C143.698 941.026 156.142 942.344 171.711 942.421C218.976 942.657 259.475 926.137 292.606 893.11C305.887 879.871 323.974 855.857 322.84 852.97C322.455 851.99 315.868 844.346 308.199 835.984L294.256 820.779L289.645 829.917C278.665 851.682 252.759 877.271 230.031 888.803C192.278 907.957 143.976 905.938 106.137 883.625C88.1209 873.001 68.1553 851.731 58.1869 832.542C47.088 811.178 42.9805 794.747 43.0188 771.856C43.0568 749.051 47.0297 731.536 56.3695 712.994C77.3365 671.369 115.868 644.956 162.983 639.908L177.383 638.364L185.245 620.203C189.57 610.214 192.578 601.513 191.931 600.865C191.283 600.218 182.478 599.69 172.364 599.69Z" fill="#FFCD00"/>
<path d="M303.592 436.935C296.926 436.697 288.621 436.739 278.186 436.952C243.482 437.651 242.106 437.846 233.964 443.235C223.583 450.106 218.636 460.092 218.636 474.156C218.636 487.142 221.866 493.794 236.602 511.161L247.854 524.419L243.475 535.402C241.069 541.442 236.009 554.378 232.232 564.151C228.455 573.924 213.388 612.024 198.747 648.817L198.53 649.361C154.882 759.05 151.151 768.427 153.176 776.329C153.365 777.066 153.604 777.791 153.865 778.583L153.88 778.626C155.255 782.791 158.612 786.595 162.791 788.719C170.897 792.839 182.273 791.67 187.794 786.151C189.945 784 200.619 759.277 211.514 731.209C245.486 643.687 247.89 637.548 268.331 586.102C279.295 558.507 288.704 532.044 289.241 527.293C290.625 515.06 286.686 505.109 274.808 490.84L264.484 478.439H291.434C315.926 478.439 319.022 478.01 325.348 473.736C334.027 467.872 336.58 459.426 332.573 449.838C328.839 440.905 323.592 437.649 303.592 436.935Z" fill="#FFCD00"/>
<path fill-rule="evenodd" clip-rule="evenodd" d="M236.577 115.227C236.568 115.214 236.558 115.2 236.549 115.186C236.557 115.191 236.574 115.204 236.582 115.21C236.589 115.218 236.596 115.228 236.602 115.239C236.608 115.25 236.613 115.262 236.617 115.276C236.619 115.281 236.621 115.286 236.622 115.292C236.613 115.277 236.603 115.263 236.592 115.248L236.585 115.238L236.577 115.227ZM4.4721 1002.32C9.55088 991.082 19.382 985.018 32.9913 984.5C37.5278 984.327 42.4857 984.771 47.8255 985.844C54.4785 987.182 55.3603 988.317 55.3603 995.54C55.3603 1005.25 52.5624 1005.98 47.1427 997.66C42.252 990.157 31.8873 989.596 24.5806 996.439C14.295 1006.07 13.9867 1039.68 24.1097 1047.92C32.2431 1054.54 38.9937 1052.56 41.4868 1042.84C43.1218 1036.47 42.68 1033.71 39.4477 1030.12C35.4457 1025.67 35.7344 1025.53 48.9557 1025.53C56.455 1025.53 62.5938 1026.63 62.5938 1027.96C62.5938 1029.29 61.5088 1030.38 60.1826 1030.38C58.8565 1030.38 57.7715 1036.42 57.7715 1043.79V1057.2L49.9353 1057.1C45.6253 1057.04 38.3015 1057.6 33.66 1058.34C28.0596 1059.22 22.3825 1058.21 16.7821 1055.33C0.842071 1047.12 -4.7978 1022.84 4.4721 1002.32ZM820.596 1019.25C832.806 986.823 833.549 985.542 840.14 985.542C846.776 985.542 847.32 986.525 857.39 1016.79C863.108 1033.98 869.442 1049.88 871.466 1052.13C875.931 1057.09 876.178 1059.62 872.134 1059.03C870.477 1058.79 863.882 1058.18 857.484 1057.68C848.275 1056.95 846.394 1056.11 848.452 1053.62C849.902 1051.86 850.38 1047.1 849.535 1042.85C848.064 1035.46 847.639 1035.23 835.252 1035.23C822.987 1035.23 822.421 1035.52 820.874 1042.6C819.89 1047.11 820.398 1051.35 822.183 1053.51C824.675 1056.53 823.378 1057.04 813.353 1057.01C806.203 1056.98 802.838 1056.18 804.754 1054.96C806.487 1053.86 813.616 1037.79 820.596 1019.25ZM608.477 986.19C612.074 985.902 614.946 985.74 617.17 985.736C623.843 985.721 624.695 987.098 621.842 990.555C619.722 993.123 620.044 998.402 623.194 1012.76C625.466 1023.12 628.084 1033 629.014 1034.71C630.645 1037.72 643.679 998.441 643.679 990.517C643.679 987.982 645.955 986.753 650.648 986.753C657.316 986.753 657.827 987.566 662.474 1005.54C665.145 1015.87 668.029 1027.45 668.883 1031.27C669.736 1035.1 670.939 1037.72 671.558 1037.1C672.176 1036.47 675.535 1026.3 679.017 1014.5C683.383 999.7 684.493 992.753 682.596 992.117C676.324 990.015 680.519 986.753 689.49 986.753C699.032 986.753 701.12 988.465 697.021 992.931C695.858 994.198 690.219 1009.14 684.489 1026.14C674.596 1055.49 673.744 1057.04 667.578 1057.04C661.516 1057.04 660.747 1055.79 655.998 1038.09C653.201 1027.67 650.912 1017.31 650.912 1015.07C650.912 1007.77 646.915 1010.77 644.22 1020.08C642.774 1025.08 639.815 1035.44 637.642 1043.11C634.067 1055.72 633.06 1057.04 627.083 1057.04C620.764 1057.04 620.122 1055.87 612.31 1029.96C607.819 1015.06 602.354 999.335 600.165 995.019L596.186 987.17L608.477 986.19ZM707.607 992.524L703.844 986.753H717.322C729.983 986.753 730.703 987.069 729.171 991.923C727.498 997.22 735.193 1037.65 737.873 1037.65C739.712 1037.65 752.25 996.842 752.208 990.995C752.187 987.921 754.109 986.753 759.188 986.753C766.07 986.753 766.295 987.179 771.691 1010.39C774.713 1023.38 777.878 1034.86 778.726 1035.9C779.574 1036.93 783.197 1028.28 786.774 1016.68C791.208 1002.31 792.491 994.801 790.81 993.111C786.262 988.539 788.281 986.753 797.992 986.753C807.041 986.753 810.491 989.54 805.376 992.718C804.133 993.491 798.464 1008.28 792.784 1025.58C783.021 1055.32 782.109 1057.04 776.108 1057.04C770.31 1057.04 769.311 1055.52 764.58 1039.47C761.73 1029.81 759.399 1020.05 759.404 1017.8C759.414 1012.01 755.172 1010.06 753.758 1015.2C742.507 1056.08 742.086 1057.04 735.232 1057.04C731.045 1057.04 728.154 1055.49 727.334 1052.8C726.623 1050.47 722.738 1037.25 718.702 1023.43C714.666 1009.6 709.675 995.697 707.607 992.524ZM841.181 1013.67C839.55 1008.2 837.45 1003.72 836.514 1003.72C834.629 1003.72 826.926 1022.77 826.926 1027.43C826.926 1029.27 830.655 1030.38 836.824 1030.38C844.308 1030.38 846.414 1029.55 845.438 1027C844.727 1025.14 842.811 1019.14 841.181 1013.67ZM441.143 1055.22C418.269 1043.74 427.249 1003.77 452.714 1003.73C461.96 1003.72 471.796 1010.37 474.635 1018.55C479.582 1032.82 479.077 1033.28 460.432 1031.43C443.635 1029.76 443.554 1029.78 443.554 1035.75C443.554 1047.56 456.579 1053.43 466.808 1046.22C471.981 1042.58 474.899 1043.47 474.899 1048.69C474.899 1052.1 460.628 1059.47 454.037 1059.46C451.585 1059.46 445.784 1057.55 441.143 1055.22ZM537.589 1031.67C537.589 1015.13 546.638 1005.03 560.494 1004.66C563.692 1004.58 567.146 1005.01 570.803 1006C586.766 1010.32 592.931 1022.49 588.166 1040.28C583.755 1056.74 564.765 1064.24 549.098 1055.69C540.378 1050.93 537.589 1045.11 537.589 1031.67ZM513.595 1007.3C517.154 1005.44 520.402 1004.6 523.07 1004.69C527.516 1004.83 530.355 1007.53 530.355 1012.44C530.355 1020.23 523.49 1022.94 519.091 1016.89C516.477 1013.3 514.861 1012.88 511.603 1014.93C505.877 1018.54 504.539 1043.16 509.644 1051C513.297 1056.6 513.285 1056.61 500.122 1057.43C492.874 1057.89 486.948 1057.5 486.95 1056.58C486.952 1055.66 488.04 1054.23 489.366 1053.41C490.692 1052.59 491.777 1042.71 491.777 1031.45C491.777 1019.43 490.783 1010.99 489.366 1010.99C488.04 1010.99 486.955 1009.9 486.955 1008.57C486.955 1007.24 491.295 1006.14 496.599 1006.14C501.904 1006.14 506.244 1007.26 506.244 1008.63C506.244 1010.04 509.434 1009.46 513.595 1007.3ZM283.218 1014.14C287.525 1007.96 296.381 1004.94 305.182 1005.03C313.983 1005.13 322.733 1008.33 326.821 1014.6C331.286 1021.45 331.846 1039.78 327.824 1047.34C324.903 1052.82 311.827 1059.54 304.386 1059.37C302.023 1059.32 296.649 1057.78 292.443 1055.94C288.238 1054.1 283.627 1050.39 282.196 1047.7C278.391 1040.56 279.011 1020.18 283.218 1014.14ZM123.513 1016.6C121.86 1011.55 133.984 1005.89 147.087 1005.59C163.378 1005.22 166.273 1008.94 166.273 1030.31C166.273 1040.63 167.559 1048.12 169.913 1051.5C171.917 1054.37 172.73 1057.19 171.721 1057.76C168.419 1059.62 151.809 1056.57 153.172 1054.36C155.199 1051.06 151.162 1051.92 145.919 1055.91C139.393 1060.87 130.979 1060.35 125.283 1054.62C122.631 1051.96 120.461 1047.67 120.461 1045.1C120.461 1038.64 131.378 1030.62 142.651 1028.81C151.468 1027.39 152.015 1026.82 151.33 1019.75C150.724 1013.49 149.444 1012.07 143.791 1011.42C138.515 1010.81 136.678 1011.8 135.639 1015.79C134.198 1021.33 125.257 1021.93 123.513 1016.6ZM74.6495 1012.2C69.3934 1008.94 72.7287 1006.14 81.8829 1006.14C89.2498 1006.14 91.5274 1007.09 91.5274 1010.15C91.5274 1013.89 91.8324 1013.89 95.9353 1010.15C101.452 1005.14 115.639 1004.72 115.639 1009.58C115.639 1020.13 109.939 1023.67 104.591 1016.45C102.114 1013.1 100.536 1012.77 97.0938 1014.88C93.719 1016.95 92.568 1021.25 92.0125 1033.88C91.5689 1043.97 92.3915 1051.54 94.1647 1053.68C97.9686 1058.29 97.2009 1058.53 83.0885 1057.07C75.7131 1056.31 72.2028 1055.07 74.0467 1053.87C77.7271 1051.48 78.2627 1014.45 74.6495 1012.2ZM337.464 1007.22C337.464 1006.63 343.019 1006.14 349.812 1006.14C360.381 1006.14 361.741 1006.65 359.235 1009.69C356.915 1012.5 357.143 1015.78 360.337 1025.45C362.555 1032.16 365.1 1037.64 365.988 1037.62C366.876 1037.6 369.773 1030.78 372.425 1022.47C376.218 1010.58 378.38 1007.19 382.555 1006.59C387.219 1005.93 388.504 1007.95 393.113 1023.2C398.837 1042.14 400.462 1042.02 405.178 1022.25C407.488 1012.58 407.4 1010.06 404.679 1008.33C402.486 1006.94 404.836 1006.21 411.606 1006.18C422.653 1006.14 423.579 1007.29 418.242 1014.37C416.34 1016.9 411.922 1027.59 408.428 1038.14C402.569 1055.83 401.603 1057.26 396.019 1056.58C390.819 1055.94 389.211 1053.44 384.627 1038.87L379.291 1021.9L373.574 1039.47C368.45 1055.23 367.216 1057.05 361.669 1057.05C356.084 1057.05 355.05 1055.46 350.984 1040.68C348.507 1031.69 344.45 1020.72 341.971 1016.31C339.491 1011.9 337.464 1007.81 337.464 1007.22ZM570.954 1017.17C569.046 1012.96 565.247 1010.85 561.639 1011.03C558.833 1011.16 556.146 1012.68 554.551 1015.68C551.403 1021.59 551.323 1037.83 554.405 1045.98C557.299 1053.63 567.508 1054.56 571.26 1047.51C574.593 1041.25 574.425 1024.83 570.954 1017.17ZM312.01 1016.38C309.459 1012.72 306.292 1010.99 303.397 1011.14C300.502 1011.3 297.879 1013.33 296.413 1017.21C293.246 1025.58 293.447 1038.49 296.861 1046.02C300.252 1053.51 309.623 1054.36 313.268 1047.51C317.003 1040.49 316.276 1022.5 312.01 1016.38ZM460.488 1017.21C458.965 1013.18 455.887 1011.3 452.765 1011.21C448.203 1011.08 443.554 1014.76 443.554 1021.17C443.554 1024.64 445.519 1025.54 453.199 1025.54C458.503 1025.54 462.843 1025.06 462.843 1024.48C462.843 1023.9 461.782 1020.63 460.488 1017.21ZM151.354 1040.68C151.927 1034.71 151.159 1032.81 148.18 1032.81C141.643 1032.81 134.928 1037.56 134.928 1042.19C134.928 1048.28 137.388 1050.11 144.478 1049.28C149.436 1048.7 150.742 1047.07 151.354 1040.68Z" fill="white"/>
<path fill-rule="evenodd" clip-rule="evenodd" d="M209.462 989.935C207.401 987.863 207.364 986.67 210.799 986.128C214.234 985.587 221.14 985.697 232.975 986.228C250.618 987.019 256.086 988.168 260.1 991.928C267.34 998.708 266.847 1012.05 259.088 1019.28L253.046 1024.91L261.499 1039.01C266.147 1046.77 271.308 1053.99 272.966 1055.05C274.687 1056.15 270.795 1056.98 263.891 1057.01L251.798 1057.04L245.407 1042.5C240.541 1031.43 237.812 1027.96 233.987 1027.96C229.572 1027.96 228.962 1029.41 228.962 1039.94C228.962 1046.52 230.064 1052.6 231.411 1053.43C233.972 1055.02 232.316 1059.74 229.419 1059.1C228.503 1058.9 222.874 1058.09 216.907 1057.29C210.116 1056.38 207.184 1055.1 209.071 1053.87C212.981 1051.33 213.332 993.825 209.462 989.935ZM234.99 991.601C241.985 991.601 250.663 999.354 250.663 1005.6C250.663 1007.97 248.974 1012.34 246.91 1015.3C244.476 1018.79 240.66 1020.69 236.059 1020.69C228.993 1020.69 228.962 1020.62 228.962 1006.14C228.962 992.247 229.23 991.601 234.99 991.601Z" fill="white"/>
</g>
</g>
<defs>
<clipPath id="clip0_309_65">
<rect width="876" height="1060" fill="white"/>
</clipPath>
</defs>
</svg>
