<svg width="792" height="140" viewBox="0 0 792 140" fill="none" xmlns="http://www.w3.org/2000/svg">
<rect width="792" height="140" rx="34" fill="#DA291C"/>
<rect x="13.5" y="9.5" width="765" height="121" rx="32.5" stroke="white" stroke-width="3" stroke-dasharray="14 14"/>
<path d="M115.143 80.776C115.143 84.9147 113.692 88.0933 110.791 90.312C107.932 92.5307 104.135 93.64 99.399 93.64C96.583 93.64 93.8523 93.2987 91.207 92.616C88.6043 91.9333 86.535 90.952 84.999 89.672L86.151 80.136L91.847 80.712L91.719 85.832C93.127 86.5573 94.407 87.0267 95.559 87.24C96.7537 87.4107 97.863 87.496 98.887 87.496C101.362 87.496 103.41 87.112 105.031 86.344C106.695 85.5333 107.527 83.9333 107.527 81.544C107.527 78.9413 106.588 77.2133 104.711 76.36C102.834 75.464 100.679 74.7813 98.247 74.312C96.2843 73.928 94.3003 73.416 92.295 72.776C90.2897 72.136 88.6257 71.0693 87.303 69.576C85.9803 68.0827 85.319 65.8853 85.319 62.984C85.319 58.632 86.791 55.5173 89.735 53.64C92.7217 51.72 96.0497 50.76 99.719 50.76C102.279 50.76 104.754 51.144 107.143 51.912C109.575 52.68 111.474 53.6827 112.839 54.92L113.223 63.688L107.527 64.2L106.951 58.824C105.756 58.1413 104.562 57.672 103.367 57.416C102.172 57.16 101.02 57.032 99.911 57.032C97.9057 57.032 96.2417 57.4373 94.919 58.248C93.5963 59.0587 92.935 60.36 92.935 62.152C92.935 64.2427 93.7457 65.672 95.367 66.44C97.031 67.1653 98.887 67.7627 100.935 68.232C102.684 68.616 104.668 69.128 106.887 69.768C109.106 70.408 111.026 71.56 112.647 73.224C114.311 74.8453 115.143 77.3627 115.143 80.776ZM156.99 64.968L150.846 65.48L149.566 57.48H141.438V86.92H148.414V93H127.614V86.92H134.333V57.48H126.142L124.862 65.48L118.782 64.968L120.062 51.4H155.71L156.99 64.968ZM197.929 93H188.201L179.625 76.552H172.777V86.92H177.641V93H160.873V86.92H165.673V57.48H160.873V51.4H179.369C184.531 51.4 188.393 52.488 190.953 54.664C193.513 56.7973 194.793 59.8053 194.793 63.688C194.793 66.4613 194.046 68.8507 192.553 70.856C191.102 72.8187 189.075 74.2267 186.473 75.08L192.809 86.92H197.929V93ZM187.241 63.88C187.241 61.5333 186.558 59.8907 185.193 58.952C183.827 57.9707 181.502 57.48 178.217 57.48H172.777V70.856H178.153C181.566 70.856 183.934 70.2587 185.257 69.064C186.579 67.8267 187.241 66.0987 187.241 63.88ZM242.346 72.136C242.346 78.024 240.447 83.08 236.65 87.304C232.853 91.528 227.669 93.64 221.098 93.64C214.485 93.64 209.343 91.528 205.674 87.304C202.005 83.08 200.17 78.0667 200.17 72.264C200.17 66.2053 202.09 61.1067 205.93 56.968C209.77 52.8293 214.89 50.76 221.29 50.76C227.775 50.76 232.895 52.872 236.65 57.096C240.447 61.2773 242.346 66.2907 242.346 72.136ZM234.666 72.328C234.666 67.6773 233.471 63.9653 231.082 61.192C228.735 58.4187 225.45 57.032 221.226 57.032C216.789 57.032 213.439 58.4827 211.178 61.384C208.959 64.2427 207.85 67.8053 207.85 72.072C207.85 76.2107 208.938 79.7947 211.114 82.824C213.333 85.8533 216.767 87.368 221.418 87.368C225.813 87.368 229.119 85.96 231.338 83.144C233.557 80.2853 234.666 76.68 234.666 72.328ZM289.646 57.48H284.846V93L280.75 93.064L257.71 64.2H257.454V86.92H263.534V93H246.19V86.92H250.798V57.48H245.549V51.4H255.982L277.934 78.92H278.19V57.48H272.11V51.4H289.646V57.48ZM333.075 93H317.139V86.92H321.363L319.251 81.224H303.699L301.459 86.92H306.131V93H290.387V86.92H294.227L306.771 57.48H300.691V51.4H314.067L329.043 86.92H333.075V93ZM317.331 76.04L311.891 61.576H311.507L305.747 76.04H317.331ZM402.939 57.48H399.547L388.219 93H382.971L372.795 63.688H372.475L362.619 93H357.307L345.275 57.48H341.691V51.4H357.499V57.48H352.891L360.059 81.288H360.378L368.635 57.48H364.987V51.4H380.731V57.48H377.339L385.595 81.608H385.915L392.443 57.48H387.323V51.4H402.939V57.48ZM451.815 80.84C451.815 84.168 450.663 87.0267 448.359 89.416C446.098 91.8053 442.62 93 437.927 93H416.935V86.92H421.735V57.48H416.935V51.4H437.671C441.596 51.4 444.668 52.296 446.887 54.088C449.148 55.88 450.279 58.2693 450.279 61.256C450.279 63.432 449.618 65.3307 448.295 66.952C446.972 68.5733 445.159 69.5973 442.855 70.024V70.28C445.842 70.7493 448.082 71.944 449.575 73.864C451.068 75.784 451.815 78.1093 451.815 80.84ZM442.663 63.048C442.663 60.872 442.023 59.4 440.743 58.632C439.506 57.864 437.906 57.48 435.943 57.48H428.839V68.872H435.495C437.927 68.872 439.719 68.3387 440.871 67.272C442.066 66.1627 442.663 64.7547 442.663 63.048ZM444.199 80.584C444.199 76.488 441.852 74.44 437.159 74.44H428.839V86.92H436.199C441.532 86.92 444.199 84.808 444.199 80.584ZM497.782 57.48H493.942V75.848C493.942 78.792 493.387 81.6293 492.278 84.36C491.211 87.048 489.398 89.2667 486.838 91.016C484.321 92.7653 480.886 93.64 476.534 93.64C470.262 93.64 465.889 91.912 463.414 88.456C460.939 85 459.702 81.032 459.702 76.552V57.48H455.734V51.4H471.99V57.48H466.806V76.36C466.806 79.6453 467.595 82.312 469.174 84.36C470.753 86.3653 473.334 87.368 476.918 87.368C480.417 87.368 483.019 86.3653 484.726 84.36C486.433 82.312 487.286 79.4747 487.286 75.848V57.48H481.974V51.4H497.782V57.48ZM542.63 72.072C542.63 78.3013 540.774 83.3573 537.062 87.24C533.35 91.08 528.209 93 521.638 93H502.31V86.92H507.11V57.48H502.31V51.4H521.254C528.251 51.4 533.563 53.32 537.19 57.16C540.817 61 542.63 65.9707 542.63 72.072ZM535.014 72.136C535.014 62.3653 530.363 57.48 521.062 57.48H514.214V86.92H521.062C530.363 86.92 535.014 81.992 535.014 72.136ZM588.721 72.136C588.721 78.024 586.822 83.08 583.025 87.304C579.228 91.528 574.044 93.64 567.473 93.64C560.86 93.64 555.718 91.528 552.049 87.304C548.38 83.08 546.545 78.0667 546.545 72.264C546.545 66.2053 548.465 61.1067 552.305 56.968C556.145 52.8293 561.265 50.76 567.665 50.76C574.15 50.76 579.27 52.872 583.025 57.096C586.822 61.2773 588.721 66.2907 588.721 72.136ZM581.041 72.328C581.041 67.6773 579.846 63.9653 577.457 61.192C575.11 58.4187 571.825 57.032 567.601 57.032C563.164 57.032 559.814 58.4827 557.553 61.384C555.334 64.2427 554.225 67.8053 554.225 72.072C554.225 76.2107 555.313 79.7947 557.489 82.824C559.708 85.8533 563.142 87.368 567.793 87.368C572.188 87.368 575.494 85.96 577.713 83.144C579.932 80.2853 581.041 76.68 581.041 72.328ZM650.439 57.48H647.047L635.719 93H630.471L620.295 63.688H619.975L610.119 93H604.807L592.775 57.48H589.191V51.4H604.999V57.48H600.391L607.559 81.288H607.878L616.135 57.48H612.487V51.4H628.231V57.48H624.839L633.095 81.608H633.415L639.943 57.48H634.823V51.4H650.439V57.48ZM670.2 93H653.56V86.92H658.36V57.48H653.56V51.4H670.2V57.48H665.464V86.92H670.2V93ZM707.053 93H675.373V86.92H680.173V57.48H675.373V51.4H706.604L707.885 63.432L701.805 63.944L700.525 57.48H687.277V69H705.581V75.08H687.277V86.92H700.973L702.253 80.456L708.333 80.968L707.053 93Z" fill="white"/>
</svg>
