<svg width="48" height="48" viewBox="0 0 48 48" fill="none" xmlns="http://www.w3.org/2000/svg">
<path fill-rule="evenodd" clip-rule="evenodd" d="M38.7062 17.8107C36.3033 17.8107 34.1188 18.7207 32.4696 20.196L30.8913 18.8499L32.0163 15.2907H33.9878C34.7414 15.2907 35.3531 14.6876 35.3531 13.9445C35.3531 13.2014 34.7414 12.5984 33.9878 12.5984H29.3184C28.5648 12.5984 27.9531 13.2014 27.9531 13.9445C27.9531 14.6337 28.4829 15.1991 29.1601 15.2745L28.0132 18.8876L25.9707 25.4299C25.6321 25.2522 25.3044 24.956 24.9604 24.5307C24.3324 23.7499 23.7972 22.6999 23.1473 21.4453C23.0872 21.3268 23.0271 21.2137 22.9671 21.0899C21.7765 18.7799 20.1709 15.7268 16.9379 14.6876L18.5326 10.8968C18.5817 10.7837 18.6145 10.6599 18.6254 10.5414H20.8809C21.6345 10.5414 22.2462 9.93835 22.2462 9.19527C22.2462 8.4522 21.6345 7.84912 20.8809 7.84912H14.2564C13.6011 7.84912 13.0386 8.30681 12.9184 8.9422C12.7928 9.57758 13.1423 10.2076 13.754 10.4445L15.4797 11.123L12.5471 18.0907C11.8262 17.913 11.0725 17.8053 10.2971 17.8053C5.1799 17.8107 1.02393 21.9084 1.02393 26.9645C1.02393 32.0207 5.1799 36.1184 10.308 36.1184C15.436 36.1184 19.592 32.0207 19.592 26.9645C19.592 23.6314 17.7789 20.7237 15.0811 19.1245L15.8948 17.186C18.0083 17.7622 19.2152 19.7276 20.5368 22.3068C20.6023 22.436 20.6679 22.5653 20.7334 22.6945C21.3451 23.8899 22.0113 25.193 22.8251 26.2053C23.7698 27.3791 25.0642 28.3537 26.91 28.3537H29.5369C30.2141 32.7476 34.0533 36.1184 38.7008 36.1184C43.8289 36.1184 47.9848 32.0207 47.9848 26.9645C47.9848 21.9084 43.8289 17.8107 38.7008 17.8107H38.7062ZM16.8614 26.9645C16.8614 30.5345 13.9288 33.426 10.308 33.426C6.6872 33.426 3.75453 30.5345 3.75453 26.9645C3.75453 23.3945 6.6872 20.503 10.308 20.503C10.7176 20.503 11.1108 20.546 11.4985 20.616L9.04644 26.4476C8.75699 27.1368 9.09013 27.923 9.7837 28.2084C10.4827 28.4937 11.2801 28.1653 11.5695 27.4814L14.0216 21.6445C15.7364 22.8076 16.8614 24.7568 16.8614 26.9645V26.9645ZM34.6977 25.6614H32.2893C32.404 25.1068 32.6006 24.5791 32.8518 24.0837L34.6977 25.6614V25.6614ZM30.012 21.6607L30.7383 22.2799C30.1212 23.2976 29.7007 24.4391 29.526 25.6614H28.7614L30.012 21.6607ZM38.7062 33.426C35.5715 33.426 32.9501 31.2507 32.3057 28.3537H38.3513C38.9192 28.3537 39.4326 28.0037 39.6292 27.476C39.8258 26.9484 39.6729 26.356 39.2414 25.9899L34.5393 21.973C35.6698 21.0576 37.117 20.503 38.6953 20.503C42.3161 20.503 45.2488 23.3945 45.2488 26.9645C45.2488 30.5345 42.3161 33.426 38.6953 33.426H38.7062Z" fill="#DA291C"/>
</svg>
